<?xml version="1.0" encoding="utf-8"?>
<!-- Generator: Adobe Illustrator 22.1.0, SVG Export Plug-In . SVG Version: 6.00 Build 0)  -->
<svg version="1.1" id="Layer_1" xmlns="http://www.w3.org/2000/svg" xmlns:xlink="http://www.w3.org/1999/xlink" x="0px" y="0px"
	 viewBox="0 0 20 20" style="enable-background:new 0 0 20 20;" xml:space="preserve">
<title>magnifying-glass</title>
<path d="M17.5,15.5l-3.8-3.8c0.6-0.9,0.9-2,0.9-3.2c0-3.4-3-6.4-6.4-6.4S2.1,4.9,2.1,8.3c0,3.4,3,6.4,6.4,6.4c1.1,0,2.2-0.3,3.1-0.8
	l3.8,3.8c0.4,0.4,1,0.4,1.3,0l0.9-0.9C18.1,16.3,17.9,15.8,17.5,15.5z M4,8.3C4,5.9,5.9,4,8.3,4s4.5,2.1,4.5,4.5
	c0,2.4-1.9,4.3-4.3,4.3S4,10.7,4,8.3z"/>
</svg>
